<svg xmlns="http://www.w3.org/2000/svg" viewBox="0 0 120 76.6"><g id="Layer_2" data-name="Layer 2"><g id="BACKGROUND"><polygon points="120 60.49 120 76.6 106.86 68.55 120 60.49"/><polygon points="93.29 60.49 93.29 76.6 80.14 68.55 93.29 60.49"/><polygon points="66.57 60.49 66.57 76.6 53.43 68.55 66.57 60.49"/><polygon points="39.86 60.49 39.86 76.6 26.71 68.55 39.86 60.49"/><polygon points="13.14 60.49 13.14 76.6 0 68.55 13.14 60.49"/><polygon points="120 0 120 16.11 106.86 8.05 120 0"/><polygon points="93.29 0 93.29 16.11 80.14 8.05 93.29 0"/><polygon points="66.57 0 66.57 16.11 53.43 8.05 66.57 0"/><polygon points="39.86 0 39.86 16.11 26.71 8.05 39.86 0"/><polygon points="13.14 0 13.14 16.11 0 8.05 13.14 0"/><polygon points="120 32.61 120 48.72 106.86 40.66 120 32.61"/><polygon points="93.29 32.61 93.29 48.72 80.14 40.66 93.29 32.61"/><polygon points="66.57 32.61 66.57 48.72 53.43 40.66 66.57 32.61"/><polygon points="39.86 32.61 39.86 48.72 26.71 40.66 39.86 32.61"/><polygon points="13.14 32.61 13.14 48.72 0 40.66 13.14 32.61"/></g></g></svg>